<svg width="61" height="62" viewBox="0 0 61 62" fill="none" xmlns="http://www.w3.org/2000/svg">
<g filter="url(#filter0_d_164_212)">
<rect x="12.1016" y="10.7998" width="35.1" height="32.4" fill="white"/>
<path d="M41.0875 16.1624C41.098 16.1624 41.112 16.1624 41.1259 16.1624C41.4913 16.1624 41.8304 16.2789 42.1083 16.4797L42.1031 16.4761C42.3059 16.6572 42.4422 16.9118 42.4754 17.1986V17.204C42.5104 17.4227 42.5296 17.6737 42.5296 17.9301C42.5296 18.0466 42.5261 18.1614 42.5174 18.2761V18.26C42.1241 22.5072 40.418 32.807 39.551 37.5616C39.1839 39.5749 38.462 40.249 37.7628 40.3135C36.2438 40.4588 35.0901 39.2845 33.6182 38.2948C31.3144 36.744 30.0121 35.7795 27.7764 34.2681C25.1911 32.5237 26.8674 31.561 28.3393 29.994C28.7256 29.5817 35.4222 23.3337 35.5533 22.7671C35.5603 22.7331 35.5638 22.6954 35.5638 22.656C35.5638 22.5161 35.5131 22.3888 35.4309 22.292C35.34 22.2311 35.2264 22.197 35.1076 22.197C35.0289 22.197 34.9537 22.2131 34.8838 22.24L34.8873 22.2382C34.6566 22.292 30.9765 24.7864 23.8469 29.7215C23.069 30.3508 22.0866 30.7488 21.0169 30.7954H21.0064C19.4908 30.6072 18.1152 30.2612 16.8094 29.7681L16.9388 29.8112C15.2991 29.2626 13.9969 28.9739 14.1087 28.0452C14.1682 27.5624 14.8172 27.0681 16.056 26.5626C23.6866 23.1526 28.7751 20.905 31.3214 19.8197C34.1304 18.2904 37.387 17.0319 40.8113 16.2161L41.0857 16.1606L41.0875 16.1624ZM30.2638 0C15.7519 0.0358566 4 12.1106 4 27C4 41.911 15.7851 54 30.325 54C44.8649 54 56.65 41.9128 56.65 27C56.65 12.1106 44.8981 0.0358566 30.3897 0H30.3862C30.3454 0 30.3046 0 30.2638 0Z" fill="#F682B4"/>
</g>
<defs>
<filter id="filter0_d_164_212" x="0" y="0" width="60.6484" height="62" filterUnits="userSpaceOnUse" color-interpolation-filters="sRGB">
<feFlood flood-opacity="0" result="BackgroundImageFix"/>
<feColorMatrix in="SourceAlpha" type="matrix" values="0 0 0 0 0 0 0 0 0 0 0 0 0 0 0 0 0 0 127 0" result="hardAlpha"/>
<feOffset dy="4"/>
<feGaussianBlur stdDeviation="2"/>
<feComposite in2="hardAlpha" operator="out"/>
<feColorMatrix type="matrix" values="0 0 0 0 0 0 0 0 0 0 0 0 0 0 0 0 0 0 0.25 0"/>
<feBlend mode="normal" in2="BackgroundImageFix" result="effect1_dropShadow_164_212"/>
<feBlend mode="normal" in="SourceGraphic" in2="effect1_dropShadow_164_212" result="shape"/>
</filter>
</defs>
</svg>
