<svg width="62" height="62" viewBox="0 0 62 62" fill="none" xmlns="http://www.w3.org/2000/svg">
<g filter="url(#filter0_d_164_209)">
<rect x="15.6523" y="10.7998" width="35.1" height="32.4" fill="white"/>
<path d="M31.1766 0C16.6361 0 4.85156 12.0868 4.85156 27C4.85156 41.9132 16.6361 54 31.1766 54C45.717 54 57.5016 41.9132 57.5016 27C57.5016 12.0868 45.717 0 31.1766 0ZM41.686 22.8024C41.6963 23.0344 41.6963 23.277 41.6963 23.5196C41.6963 30.8496 36.2565 39.3082 26.3024 39.3082C23.2482 39.3082 20.3998 38.3906 18.0141 36.8192C18.4357 36.8719 18.8676 36.8929 19.3098 36.8929C21.8394 36.8929 24.1737 36.007 26.0247 34.5199C23.6595 34.4777 21.6543 32.8746 20.9756 30.6703C21.3047 30.7336 21.644 30.7652 21.9937 30.7652C22.4873 30.7652 22.9706 30.702 23.4231 30.5648C20.9448 30.0586 19.0835 27.8121 19.0835 25.1227V25.0594C19.8136 25.4707 20.6466 25.7238 21.5309 25.7555C20.081 24.7641 19.1246 23.0554 19.1246 21.1359C19.1246 20.1234 19.392 19.1637 19.8548 18.341C22.5284 21.7054 26.508 23.9098 31.0018 24.1418C30.9092 23.741 30.8578 23.3192 30.8578 22.8762C30.8578 19.8176 33.2846 17.3285 36.2668 17.3285C37.8195 17.3285 39.2283 18.0035 40.2155 19.0793C41.4495 18.8262 42.6012 18.3727 43.6501 17.7293C43.249 19.0266 42.3853 20.1129 41.2747 20.7984C42.3647 20.6613 43.4135 20.366 44.3802 19.923C43.6603 21.041 42.7451 22.0113 41.686 22.8024Z" fill="#F682B4"/>
</g>
<defs>
<filter id="filter0_d_164_209" x="0.851562" y="0" width="60.6484" height="62" filterUnits="userSpaceOnUse" color-interpolation-filters="sRGB">
<feFlood flood-opacity="0" result="BackgroundImageFix"/>
<feColorMatrix in="SourceAlpha" type="matrix" values="0 0 0 0 0 0 0 0 0 0 0 0 0 0 0 0 0 0 127 0" result="hardAlpha"/>
<feOffset dy="4"/>
<feGaussianBlur stdDeviation="2"/>
<feComposite in2="hardAlpha" operator="out"/>
<feColorMatrix type="matrix" values="0 0 0 0 0 0 0 0 0 0 0 0 0 0 0 0 0 0 0.25 0"/>
<feBlend mode="normal" in2="BackgroundImageFix" result="effect1_dropShadow_164_209"/>
<feBlend mode="normal" in="SourceGraphic" in2="effect1_dropShadow_164_209" result="shape"/>
</filter>
</defs>
</svg>
